<svg xmlns="http://www.w3.org/2000/svg" width="49.997" height="49.997" viewBox="0 0 49.997 49.997">
  <path id="Union_1" data-name="Union 1" d="M-10603.434,14582.8a2.527,2.527,0,0,1-1.566-2.347v-39.929a7.538,7.538,0,0,1,7.528-7.528h34.94a7.538,7.538,0,0,1,7.528,7.528v24.957a7.538,7.538,0,0,1-7.528,7.528h-28.9l-9.237,9.24a2.519,2.519,0,0,1-1.793.743A2.539,2.539,0,0,1-10603.434,14582.8Zm3.51-42.275v33.8l5.65-5.651a2.519,2.519,0,0,1,1.794-.742h29.948a2.453,2.453,0,0,0,2.452-2.452v-24.957a2.452,2.452,0,0,0-2.452-2.452h-34.94A2.454,2.454,0,0,0-10599.924,14540.529Z" transform="translate(10605 -14533.001)" fill="#48bac4"/>
</svg>
