<svg xmlns="http://www.w3.org/2000/svg" width="50" height="50" viewBox="0 0 50 50">
  <g id="Icon_feather-headphones" data-name="Icon feather-headphones" transform="translate(-3 -3)">
    <path id="Path_23395" data-name="Path 23395" d="M50.5,45.5A2.5,2.5,0,0,1,48,43V28A20,20,0,0,0,8,28V43a2.5,2.5,0,0,1-5,0V28A25,25,0,0,1,45.678,10.322,24.836,24.836,0,0,1,53,28V43A2.5,2.5,0,0,1,50.5,45.5Z" fill="#48bac4"/>
    <path id="Path_23396" data-name="Path 23396" d="M45.5,42H43a7.508,7.508,0,0,1-7.5-7.5V27A7.508,7.508,0,0,1,43,19.5h7.5A2.5,2.5,0,0,1,53,22V34.5A7.508,7.508,0,0,1,45.5,42ZM43,24.5A2.5,2.5,0,0,0,40.5,27v7.5A2.5,2.5,0,0,0,43,37h2.5A2.5,2.5,0,0,0,48,34.5v-10ZM13,42H10.5A7.508,7.508,0,0,1,3,34.5V22a2.5,2.5,0,0,1,2.5-2.5H13A7.508,7.508,0,0,1,20.5,27v7.5A7.508,7.508,0,0,1,13,42ZM8,24.5v10A2.5,2.5,0,0,0,10.5,37H13a2.5,2.5,0,0,0,2.5-2.5V27A2.5,2.5,0,0,0,13,24.5Z" transform="translate(0 11)" fill="#48bac4"/>
  </g>
</svg>
