<svg id="Group_10282" data-name="Group 10282" xmlns="http://www.w3.org/2000/svg" xmlns:xlink="http://www.w3.org/1999/xlink" width="50.008" height="50" viewBox="0 0 50.008 50">
  <defs>
    <clipPath id="clip-path">
      <rect id="Rectangle_1636" data-name="Rectangle 1636" width="50.008" height="50" fill="#48bac4"/>
    </clipPath>
  </defs>
  <g id="Group_10281" data-name="Group 10281" clip-path="url(#clip-path)">
    <path id="Path_23395" data-name="Path 23395" d="M0,41.8V39.844a1.792,1.792,0,0,0,.088-.268,9.067,9.067,0,0,1,5.755-7.292c.412-.174.847-.291,1.293-.442a19.3,19.3,0,0,1,.374-14.6c-.09-.026-.136-.043-.183-.052A8.55,8.55,0,0,1,.252,10.7C.146,10.33.083,9.948,0,9.57V7.715a1.154,1.154,0,0,0,.083-.221A8.484,8.484,0,0,1,5.476.621,6.157,6.157,0,0,1,6.205.373,10.452,10.452,0,0,1,9.022,0H9.1a4.213,4.213,0,0,1,.74.086h0a8.532,8.532,0,0,1,7.076,6.057c.148.435.229.893.346,1.363a19.316,19.316,0,0,1,14.6-.366c.038-.145.059-.239.087-.33A9.12,9.12,0,0,1,38.338.349C38.83.2,39.342.115,39.844,0H41.8a1.838,1.838,0,0,0,.268.089,9.044,9.044,0,0,1,7.554,6.52c.17.517.256,1.063.381,1.595v1.855c-.03.123-.068.244-.09.369a9.075,9.075,0,0,1-6.54,7.559l-.518.173a19.172,19.172,0,0,1,.013,13.665c.064.048.076.062.09.066.077.022.157.04.234.063a9.119,9.119,0,0,1,6.46,6.386c.154.5.239,1.027.359,1.54,0,.648-.005,1.27-.008,1.918-.147.612-.268,1.231-.449,1.833a.716.716,0,0,1-1.108.46.8.8,0,0,1-.252-1,7.866,7.866,0,0,0,.266-3.326,7.7,7.7,0,1,0-15.09,2.986A7.714,7.714,0,0,0,46.421,46.12c.465-.465.876-.555,1.218-.243s.3.779-.169,1.266a8.972,8.972,0,0,1-4.028,2.464c-.541.157-1.1.263-1.645.393H39.844a1.172,1.172,0,0,0-.219-.084,9.1,9.1,0,0,1-7.658-6.682c-.037-.117-.077-.234-.122-.373a19.318,19.318,0,0,1-13.7,0c-.062.2-.108.359-.156.512a9.1,9.1,0,0,1-6.37,6.295c-.476.145-.972.224-1.459.333H8.2a1.829,1.829,0,0,0-.267-.089A9.049,9.049,0,0,1,.38,43.393C.21,42.875.124,42.329,0,41.8M42.659,25a18.787,18.787,0,0,0-1.144-6.259.522.522,0,0,0-.6-.4,9.16,9.16,0,0,1-9.264-9.3.5.5,0,0,0-.385-.557,17.517,17.517,0,0,0-13.664.5.758.758,0,0,0-.327.446c-.3.991-.537,2-.862,2.981a.686.686,0,0,1-.99.417c-.412-.2-.519-.6-.273-1.132a7.185,7.185,0,1,0-2.211,2.7c.522-.374.967-.365,1.236.025s.135.779-.362,1.149A8.588,8.588,0,0,1,9.5,17.248a.565.565,0,0,0-.542.372,17.634,17.634,0,0,0-.479,13.627.519.519,0,0,0,.59.408,9.157,9.157,0,0,1,9.271,9.289c0,.31.073.484.38.557,1.418.34,2.818.805,4.256,1.009a16.462,16.462,0,0,0,8.377-1.055.583.583,0,0,0,.278-.412c.073-.6.045-1.208.156-1.794a9.133,9.133,0,0,1,9.178-7.594A.472.472,0,0,0,41.5,31.3,17.708,17.708,0,0,0,42.659,25M48.535,9.162a7.713,7.713,0,1,0-7.673,7.729,7.725,7.725,0,0,0,7.673-7.729M1.465,40.8a7.713,7.713,0,1,0,7.76-7.689A7.726,7.726,0,0,0,1.465,40.8" fill="#48bac4"/>
    <path id="Path_23396" data-name="Path 23396" d="M291.615,277.214c.424,0,.781-.013,1.137,0a.723.723,0,0,1,.756.727.714.714,0,0,1-.748.729c-.178.011-.358,0-.537,0h-.585c-.009.2-.023.37-.023.541,0,1.3,0,2.6,0,3.906,0,.611-.271.938-.75.93s-.711-.315-.712-.91c0-1.463,0-2.927,0-4.468-.378,0-.729.007-1.079,0-.524-.013-.852-.311-.838-.748a.761.761,0,0,1,.832-.712c.339-.01.679,0,1.085,0,0-.662,0-1.291,0-1.92a2.2,2.2,0,0,1,2.39-2.4c.488,0,.977-.007,1.465,0a.74.74,0,0,1,.815.718.756.756,0,0,1-.808.739c-.52.017-1.042,0-1.562.007-.55.009-.821.265-.831.8-.012.664,0,1.329,0,2.06" transform="translate(-250.703 -237.356)" fill="#48bac4"/>
    <path id="Path_23397" data-name="Path 23397" d="M115.5,125.447a9.96,9.96,0,1,1,9.962,9.978,9.975,9.975,0,0,1-9.962-9.978m16.41,5.495a8.474,8.474,0,1,0-12.891-.033,6.933,6.933,0,0,1,3.065-3.768,5.681,5.681,0,0,1-.536-3.36,3.9,3.9,0,0,1,3.634-3.832,3.829,3.829,0,0,1,4.083,3.093,5.911,5.911,0,0,1-.456,4.09,7.05,7.05,0,0,1,3.1,3.809m-6.448,3.023a8.645,8.645,0,0,0,4.9-1.561.544.544,0,0,0,.246-.693,5.424,5.424,0,0,0-2.46-3.266.6.6,0,0,0-.7-.012,3.765,3.765,0,0,1-3.981-.01.565.565,0,0,0-.663.005,5.413,5.413,0,0,0-2.478,3.251.6.6,0,0,0,.295.762,8.65,8.65,0,0,0,4.847,1.523m2.486-9.492-.041,0c0-.228.006-.455,0-.683a2.446,2.446,0,0,0-4.89-.017c-.013.455-.012.911,0,1.365a2.449,2.449,0,0,0,2.12,2.369,2.421,2.421,0,0,0,2.673-1.779,8.569,8.569,0,0,0,.141-1.252" transform="translate(-100.464 -100.464)" fill="#48bac4"/>
    <path id="Path_23398" data-name="Path 23398" d="M28.388,39a1.565,1.565,0,0,0-.132-.177,4.314,4.314,0,0,1-1.084-4.5.953.953,0,0,1,1.69-.452A3.4,3.4,0,0,0,30.8,34.965a7.934,7.934,0,0,1,.411-.912,2.449,2.449,0,0,1,3.452-.754.854.854,0,0,0,.9.107,1.161,1.161,0,0,1,1.609,1.445,4.086,4.086,0,0,1-.417,1.084,8.709,8.709,0,0,0-.851,1.891,5.59,5.59,0,0,1-5.112,3.748,10.676,10.676,0,0,1-1.892-.085,2.044,2.044,0,0,1-.6-.183,1.353,1.353,0,0,1-.952-1.381c.03-.638.5-.8,1.041-.921M35.6,34.939a2.211,2.211,0,0,1-1.857-.458.891.891,0,0,0-1.293.364,2.177,2.177,0,0,0-.163.8c-.047.625-.29.872-.92.865a2.153,2.153,0,0,1-.628-.058c-.774-.25-1.541-.526-2.292-.786a2.518,2.518,0,0,0,1.214,2.408c.216.143.458.245.677.383a.717.717,0,0,1,.068,1.221c-.185.146-.4.259-.615.4a4.31,4.31,0,0,0,4.787-2.9,4.345,4.345,0,0,1,.835-1.828,1.606,1.606,0,0,0,.187-.41" transform="translate(-23.457 -28.603)" fill="#48bac4"/>
    <path id="Path_23399" data-name="Path 23399" d="M291.9,44.663c0-.926-.007-1.852,0-2.778.01-1.048.774-1.5,1.677-.982q2.43,1.389,4.848,2.8a1.029,1.029,0,0,1,0,1.916q-2.418,1.411-4.849,2.8a1.038,1.038,0,0,1-1.681-.976c-.009-.926,0-1.852,0-2.778m5.264,0-3.775-2.172V46.84l3.775-2.18" transform="translate(-253.89 -35.391)" fill="#48bac4"/>
    <path id="Path_23400" data-name="Path 23400" d="M41.294,279.28c0,.927.01,1.854,0,2.781a2.18,2.18,0,0,1-2.318,2.329q-2.805.027-5.611,0a2.183,2.183,0,0,1-2.317-2.334q-.022-2.781,0-5.562a2.183,2.183,0,0,1,2.346-2.349q2.781-.016,5.562,0a2.182,2.182,0,0,1,2.339,2.354c.01.927,0,1.854,0,2.781m-8.788-.017c0,.91-.006,1.821,0,2.731.006.682.24.931.9.934q2.755.013,5.511,0c.649,0,.9-.246.9-.88q.014-2.78,0-5.559c0-.64-.248-.877-.9-.88q-2.755-.011-5.511,0c-.668,0-.9.245-.909.923-.009.91,0,1.821,0,2.731" transform="translate(-26.994 -238.442)" fill="#48bac4"/>
    <path id="Path_23401" data-name="Path 23401" d="M58.017,298.888a2.19,2.19,0,1,1-2.215-2.173,2.185,2.185,0,0,1,2.215,2.173m-2.2-.7a.7.7,0,0,0-.706.708.72.72,0,1,0,1.439-.028.7.7,0,0,0-.732-.68" transform="translate(-46.653 -258.08)" fill="#48bac4"/>
  </g>
</svg>
