<svg xmlns="http://www.w3.org/2000/svg" width="47" height="52.717" viewBox="0 0 47 52.717">
  <path id="costumer-support-call-svgrepo-com" d="M4,52.5V45.625A15.125,15.125,0,0,1,19.125,30.5h13.75A15.125,15.125,0,0,1,48,45.625V52.5m-33,0V44.25M37,52.5V44.25M23.25,19.5H13.625A4.125,4.125,0,0,1,9.5,15.375v-2.75A12.344,12.344,0,0,1,13.625,3.4M42.5,16.75V12.625A12.344,12.344,0,0,0,38.375,3.4M48,15.375V11.25M4,15.375V11.25M37,14A11,11,0,1,1,26,3,11,11,0,0,1,37,14Z" transform="translate(-2.5 -1.283)" fill="none" stroke="#48bac4" stroke-linecap="round" stroke-linejoin="round" stroke-width="3"/>
</svg>
