<svg xmlns="http://www.w3.org/2000/svg" width="40" height="38.261" viewBox="0 0 40 38.261">
  <path id="book-shelf-svgrepo-com" d="M7.054,3a.87.87,0,0,0-.707.87V27.348H2.788a.866.866,0,0,0-.788.87V31.7a.871.871,0,0,0,.87.87H5.478v6.522a2.174,2.174,0,1,0,4.348,0V32.565H34.174v6.522a2.174,2.174,0,0,0,4.348,0V32.565H41.13A.871.871,0,0,0,42,31.7V28.217a.871.871,0,0,0-.87-.87H38.413a.885.885,0,0,0,0-.353L34.011,8.38a.869.869,0,0,0-.978-.679.405.405,0,0,0-.054.027L28.739,8.734a.874.874,0,0,0-.652.652v-.3a.871.871,0,0,0-.87-.87H22V3.87A.871.871,0,0,0,21.13,3H7.054ZM8.087,4.739H13.3V27.348H8.087Zm6.957,0h5.217V27.348H15.043ZM9.582,6.478a.878.878,0,1,0,.245,1.739h1.739a.87.87,0,1,0,0-1.739H9.582Zm6.957,0a.878.878,0,1,0,.245,1.739h1.739a.87.87,0,1,0,0-1.739H16.538ZM32.516,9.6l.543,2.337a.874.874,0,0,0-.924-.435.766.766,0,0,0-.082.027l-.842.19a.873.873,0,0,0-.707.679l-.516-2.2Zm-4.429.163,4.158,17.581H28.087ZM22,9.957h4.348V27.348H22ZM23.495,11.7a.878.878,0,1,0,.245,1.739h.87a.87.87,0,1,0,0-1.739H23.495Zm9.674.734L35.8,23.6a.876.876,0,0,0-.761-.272.864.864,0,0,0-.136.027.4.4,0,0,0-.054.027l-.842.19a.873.873,0,0,0-.707.679L30.7,13.163a.873.873,0,0,0,.924.245l.842-.19A.873.873,0,0,0,33.168,12.429ZM9.582,23.87a.878.878,0,1,0,.245,1.739h1.739a.87.87,0,1,0,0-1.739H9.582Zm6.957,0a.878.878,0,0,0,.245,1.739h1.739a.87.87,0,1,0,0-1.739H16.538Zm6.957,0a.878.878,0,1,0,.245,1.739h.87a.87.87,0,1,0,0-1.739H23.495Zm12.5.543.516,2.12-2.527.6-.489-2.12a.873.873,0,0,0,.924.245l.842-.19A.879.879,0,0,0,35.995,24.413ZM3.739,29.087H40.261v1.739H3.739Zm3.478,3.478h.87v6.522a.435.435,0,1,1-.87,0Zm28.7,0h.87v6.522a.435.435,0,0,1-.87,0Z" transform="translate(-2 -3)" fill="#48bac4"/>
</svg>
