<svg xmlns="http://www.w3.org/2000/svg" width="40" height="40" viewBox="0 0 40 40">
  <path id="star-_1259_" data-name="star-[#1259]" d="M144,2423a4,4,0,1,1,4-4,4.008,4.008,0,0,1-4,4Zm0-12a8,8,0,1,0,8,8,8,8,0,0,0-8-8Zm14.508,14.08c-3.588,1.48-3.6,1.48-5.83,2.4-.848,2.02-.16.38-2.64,6.28-5.178-2.159-3.938-1.64-6.294-2.64-2.008.82-.682.28-5.83,2.38-1.468-3.58-1.474-3.6-2.386-5.82-2.018-.841-.378-.16-6.292-2.64,2.172-5.18,1.652-3.94,2.64-6.3-.41-1-.312-.76-2.384-5.82,5.124-2.1,3.724-1.52,5.83-2.4.84-2,.164-.38,2.64-6.28,5.178,2.159,3.938,1.64,6.294,2.64,1-.42.762-.32,5.83-2.38,2.09,5.1,1.976,4.82,2.386,5.82,2.018.841.378.16,6.292,2.64-2.36,5.62-1.73,4.12-2.64,6.3.41,1,.312.76,2.384,5.82ZM164,2410.82l-8.454-3.54-3.27-8-8,3.26-8.454-3.54-3.546,8.46-8,3.26,3.27,8L124,2427.18l8.454,3.54,3.27,8,8-3.26,8.454,3.54,3.546-8.46,8-3.26-3.27-8Z" transform="translate(-124 -2399)" fill="#48bac4" fill-rule="evenodd"/>
</svg>
