<svg xmlns="http://www.w3.org/2000/svg" width="34.641" height="32.495" viewBox="0 0 34.641 32.495">
  <path id="Path_26" data-name="Path 26" d="M206.336,242.145l-1.232-1.232c-.854-.854-2.206-.249-3.518.443a45.168,45.168,0,0,0-4.565,2.874,92.4,92.4,0,0,0-10.491,8.617,17.515,17.515,0,0,0,.317-2.807l.04-1.263-14.7-.486-.063,1.316a15.13,15.13,0,0,0,1.727,7.843c1.285,2.276,3.1,3.556,5.124,3.676a50.49,50.49,0,0,0-4.26,6.072l-.436.778,5.011,5.01.778-.436a68.053,68.053,0,0,0,13.272-10.711,90.421,90.421,0,0,0,9.689-11.607,45.033,45.033,0,0,0,2.868-4.57C206.585,244.352,207.187,243,206.336,242.145ZM175.9,256.324a12.3,12.3,0,0,1-1.424-5.59l9.945.326c-.436,4.314-2.67,7.785-5.145,7.785h-.088C177.965,258.8,176.8,257.909,175.9,256.324Zm15.77,3.853a72.318,72.318,0,0,1-12,9.862l-1.97-1.97-.471-.471a61.515,61.515,0,0,1,4.785-6.46l2.268,2.268,1.666-1.666-2.391-2.391c1.048-1.182,2.224-2.441,3.536-3.753,6.671-6.671,14.652-11.989,16.69-12.672l.548.547c-.679,2.042-5.989,10.038-12.657,16.706Z" transform="translate(-172.113 -240.494)" fill="#48bac4"/>
</svg>
