<svg xmlns="http://www.w3.org/2000/svg" width="50" height="50" viewBox="0 0 50 50">
  <g id="newspaper-svgrepo-com" transform="translate(-2.25 -2.25)">
    <path id="Path_23232" data-name="Path 23232" d="M36.942,52.25H6.173a1.923,1.923,0,1,1,0-3.846c1.689,0,3.205-.441,3.205-5.769V9.3A7.059,7.059,0,0,1,16.429,2.25H42.071A7.059,7.059,0,0,1,49.122,9.3V40.071A12.193,12.193,0,0,1,36.942,52.25ZM12.305,48.4H36.942a8.343,8.343,0,0,0,8.333-8.333V9.3A3.209,3.209,0,0,0,42.071,6.1H16.429A3.209,3.209,0,0,0,13.224,9.3V42.635A14.557,14.557,0,0,1,12.305,48.4Z" transform="translate(3.128)" fill="#48bac4"/>
    <path id="Path_23233" data-name="Path 23233" d="M9.3,7.25h5.128a1.923,1.923,0,0,1,1.923,1.923V36.1c0,5.062-2.768,8.333-7.051,8.333S2.25,41.158,2.25,36.1V14.3A7.059,7.059,0,0,1,9.3,7.25ZM12.506,11.1H9.3A3.209,3.209,0,0,0,6.1,14.3V36.1c0,1.676.416,4.487,3.205,4.487s3.205-2.811,3.205-4.487Z" transform="translate(0 7.821)" fill="#48bac4"/>
    <path id="Ellipse_83" data-name="Ellipse 83" d="M3.737-.75A4.487,4.487,0,1,1-.75,3.737,4.492,4.492,0,0,1,3.737-.75Zm0,5.128A.641.641,0,1,0,3.1,3.737.642.642,0,0,0,3.737,4.378Z" transform="translate(23.513 13.256)" fill="#48bac4"/>
    <path id="Path_23234" data-name="Path 23234" d="M27.558,17.1H12.173a1.923,1.923,0,0,1,0-3.846H27.558a1.923,1.923,0,1,1,0,3.846Z" transform="translate(12.513 17.205)" fill="#48bac4"/>
    <path id="Path_23235" data-name="Path 23235" d="M19.865,20.1H12.173a1.923,1.923,0,1,1,0-3.846h7.692a1.923,1.923,0,0,1,0,3.846Z" transform="translate(12.513 21.897)" fill="#48bac4"/>
  </g>
</svg>
