<svg xmlns="http://www.w3.org/2000/svg" width="54.31" height="50" viewBox="0 0 54.31 50">
  <g id="Group_10213" data-name="Group 10213" transform="translate(-285.5 -2521.5)">
    <path id="Path_23225" data-name="Path 23225" d="M53.976,51.554H11.735A3.679,3.679,0,0,1,8.06,47.879V18.285a3.679,3.679,0,0,1,3.675-3.675H40.966v3.4H11.735a.273.273,0,0,0-.272.272V47.879a.273.273,0,0,0,.272.272H53.976a.272.272,0,0,0,.272-.272V24.456h3.4V47.879a3.675,3.675,0,0,1-3.675,3.675Z" transform="translate(277.44 2512.165)" fill="#48bac4"/>
    <path id="Line_182" data-name="Line 182" d="M46.189,1.9H0V-1.5H46.189Z" transform="translate(287.201 2554.455)" fill="#48bac4"/>
    <path id="Path_23226" data-name="Path 23226" d="M23.049,55.057l-1.465-3.071a4.812,4.812,0,0,0,2.511-5.741l3.25-1.01a8.19,8.19,0,0,1-4.3,9.822Z" transform="translate(279.256 2516.277)" fill="#48bac4"/>
    <path id="Path_23227" data-name="Path 23227" d="M38.3,55.061a8.2,8.2,0,0,1-4.365-9.818l3.255.992a4.822,4.822,0,0,0,2.554,5.744Z" transform="translate(280.867 2516.279)" fill="#48bac4"/>
    <path id="Line_183" data-name="Line 183" d="M28.491,1.9H.2a1.7,1.7,0,0,1,0-3.4H28.491a1.7,1.7,0,0,1,0,3.4Z" transform="translate(295.949 2569.597)" fill="#48bac4"/>
    <path id="Ellipse_82" data-name="Ellipse 82" d="M4.206-1.5A5.706,5.706,0,1,1-1.5,4.206,5.712,5.712,0,0,1,4.206-1.5Zm0,8.008a2.3,2.3,0,1,0-2.3-2.3A2.305,2.305,0,0,0,4.206,6.508Z" transform="translate(297.254 2534.592)" fill="#48bac4"/>
    <path id="Path_23228" data-name="Path 23228" d="M15.2,42.052H13.5v-1.7a9.8,9.8,0,0,1,19.6,0l0,1.7Zm8.088-8.1a6.41,6.41,0,0,0-6.156,4.7H29.465A6.423,6.423,0,0,0,23.289,33.953Z" transform="translate(278.171 2514.305)" fill="#48bac4"/>
    <path id="Path_23229" data-name="Path 23229" d="M40.652,30.871a1.8,1.8,0,0,1-1.8-1.708l0-.09V26.782h-.621a2.688,2.688,0,0,1-2.657-2.657V12.637A2.68,2.68,0,0,1,38.247,9.96H56a2.68,2.68,0,0,1,2.677,2.677V24.124a2.688,2.688,0,0,1-2.657,2.657H47.011l-5.355,3.784A1.8,1.8,0,0,1,40.652,30.871Zm-1.679-7.492h3.278v2.6l3.679-2.6h9.343V13.363h-16.3Z" transform="translate(281.135 2511.54)" fill="#48bac4"/>
  </g>
</svg>
