<svg xmlns="http://www.w3.org/2000/svg" width="49.713" height="50" viewBox="0 0 49.713 50">
  <g id="ICON" transform="translate(-3 -3)">
    <path id="Path_23224" data-name="Path 23224" d="M51,37.572H4.714v-8a.857.857,0,1,0-1.714,0V41.857a2.572,2.572,0,0,0,2.571,2.571H9a.857.857,0,0,0,0-1.714H5.571a.857.857,0,0,1-.857-.857V39.286H51v2.571a.857.857,0,0,1-.857.857H12.428a.857.857,0,0,0,0,1.714h10.8c-.137,2.3-.733,5.268-2.929,6.857H18.857a.857.857,0,1,0,0,1.714h18a.857.857,0,0,0,0-1.714H35.409c-2.2-1.589-2.792-4.558-2.929-6.857H50.142a2.572,2.572,0,0,0,2.571-2.571V16.144a2.572,2.572,0,0,0-2.571-2.571H42.856a.857.857,0,1,0,0,1.714h7.286a.857.857,0,0,1,.857.857ZM30.765,44.429H24.947a12.643,12.643,0,0,1-2.216,6.857H32.981A12.643,12.643,0,0,1,30.765,44.429ZM14.143,13.573H5.571A2.572,2.572,0,0,0,3,16.144v10a.857.857,0,0,0,1.714,0v-10a.857.857,0,0,1,.857-.857h8.571v4.856a.857.857,0,0,0,1.714,0V5.571a.857.857,0,0,1,.857-.857H38.142A.857.857,0,0,1,39,5.571V8.143H19.285a.857.857,0,1,0,0,1.714H39v12H34.438a.858.858,0,0,0-.849.979l1.208,8.42a.857.857,0,0,0,1.5.44l1.965-2.266.741.643V33a.857.857,0,0,1-.857.857H16.714A.857.857,0,0,1,15.857,33V23.571a.857.857,0,1,0-1.714,0V33a2.571,2.571,0,0,0,2.571,2.571H38.142A2.571,2.571,0,0,0,40.713,33V31.558l1.754,1.521a.858.858,0,0,0,1.209-.086l2.246-2.59a.857.857,0,0,0-.086-1.209l-4.209-3.65,1.965-2.267a.857.857,0,0,0-.648-1.419H40.713V5.571A2.571,2.571,0,0,0,38.142,3H16.714a2.571,2.571,0,0,0-2.571,2.571v8ZM6.428,32.142v1.714a.857.857,0,1,0,1.714,0V32.142a.857.857,0,0,0-1.714,0Zm32.3-4.569a.858.858,0,0,0-1.209.086l-1.3,1.5-.8-5.584,5.641,0-1.3,1.5a.858.858,0,0,0,.086,1.209l4.209,3.65-1.123,1.3-4.209-3.65Zm-30.591,2V18.428a.857.857,0,0,0-1.714,0V29.571a.857.857,0,0,0,1.714,0Zm12.857-6a.857.857,0,0,0-.857-.857H18.428a.857.857,0,0,0-.857.857v1.714a.857.857,0,0,0,.857.857h1.714A.857.857,0,0,0,21,25.285Zm1.714,1.714h8.571a.857.857,0,1,0,0-1.714H22.714a.857.857,0,1,0,0,1.714ZM21,18.428a.857.857,0,0,0-.857-.857H18.428a.857.857,0,0,0-.857.857v1.714a.857.857,0,0,0,.857.857h1.714A.857.857,0,0,0,21,20.142Zm1.714,1.714H36.428a.857.857,0,0,0,0-1.714H22.714a.857.857,0,1,0,0,1.714ZM21,13.285a.857.857,0,0,0-.857-.857H18.428a.857.857,0,0,0-.857.857V15a.857.857,0,0,0,.857.857h1.714A.857.857,0,0,0,21,15ZM22.714,15H36.428a.857.857,0,0,0,0-1.714H22.714a.857.857,0,1,0,0,1.714Z" fill="#48bac4" fill-rule="evenodd"/>
  </g>
</svg>
