<svg xmlns="http://www.w3.org/2000/svg" width="50.823" height="50" viewBox="0 0 50.823 50">
  <g id="messages-dots-svgrepo-com" transform="translate(-0.545 -0.525)">
    <path id="Path_23230" data-name="Path 23230" d="M9.008,4.345H34.431a8.473,8.473,0,0,1,8.463,8.463V29.756a8.473,8.473,0,0,1-8.463,8.463H32.312v7.651L16.983,38.22H9.008A8.473,8.473,0,0,1,.545,29.756V12.808A8.473,8.473,0,0,1,9.008,4.345ZM34.431,33.982a4.231,4.231,0,0,0,4.226-4.226V12.808a4.231,4.231,0,0,0-4.226-4.226H9.008a4.231,4.231,0,0,0-4.226,4.226V29.756a4.231,4.231,0,0,0,4.226,4.226h8.974L28.075,39.02V33.982Z" transform="translate(0 4.654)" fill="#48bac4"/>
    <path id="Path_23231" data-name="Path 23231" d="M38.354,34.4H36.121V30.162h2.2a4.249,4.249,0,0,0,4.154-4.19V8.988a4.226,4.226,0,0,0-4.226-4.226H12.828A4.226,4.226,0,0,0,8.6,8.988v2.218H4.365V8.988A8.463,8.463,0,0,1,12.828.525H38.251a8.463,8.463,0,0,1,8.463,8.463V26a8.463,8.463,0,0,1-8.345,8.4Z" transform="translate(4.654 0)" fill="#48bac4"/>
    <path id="Line_184" data-name="Line 184" d="M4.237,3.282H0V-.955H4.237Z" transform="translate(11.138 24.773)" fill="#00baff"/>
    <path id="Line_185" data-name="Line 185" d="M4.237,3.282H0V-.955H4.237Z" transform="translate(19.612 24.773)" fill="#00baff"/>
    <path id="Line_186" data-name="Line 186" d="M4.237,3.282H0V-.955H4.237Z" transform="translate(28.064 24.773)" fill="#00baff"/>
  </g>
</svg>
