<svg xmlns="http://www.w3.org/2000/svg" width="59.655" height="60" viewBox="0 0 59.655 60">
  <g id="ICON" transform="translate(-3 -3)">
    <path id="Path_23224" data-name="Path 23224" d="M60.6,44.486H5.057v-9.6a1.029,1.029,0,0,0-2.057,0V49.629a3.087,3.087,0,0,0,3.086,3.086H10.2a1.029,1.029,0,1,0,0-2.057H6.086a1.029,1.029,0,0,1-1.029-1.029V46.543H60.6v3.086a1.029,1.029,0,0,1-1.029,1.029H14.314a1.029,1.029,0,0,0,0,2.057H27.28c-.165,2.758-.879,6.321-3.515,8.228H22.028a1.029,1.029,0,1,0,0,2.057h21.6a1.029,1.029,0,0,0,0-2.057H41.89c-2.635-1.907-3.35-5.47-3.515-8.228H59.57a3.087,3.087,0,0,0,3.086-3.086V18.773a3.087,3.087,0,0,0-3.086-3.086H50.827a1.029,1.029,0,1,0,0,2.057H59.57A1.029,1.029,0,0,1,60.6,18.773Zm-24.28,8.228H29.337a15.172,15.172,0,0,1-2.659,8.228h12.3A15.172,15.172,0,0,1,36.319,52.715ZM16.371,15.687H6.086A3.087,3.087,0,0,0,3,18.773v12a1.029,1.029,0,0,0,2.057,0v-12a1.029,1.029,0,0,1,1.029-1.029H16.371v5.827a1.029,1.029,0,0,0,2.057,0V6.086a1.029,1.029,0,0,1,1.029-1.029H45.17A1.029,1.029,0,0,1,46.2,6.086V9.171H22.542a1.029,1.029,0,0,0,0,2.057H46.2v14.4H40.726A1.03,1.03,0,0,0,39.707,26.8l1.449,10.1a1.028,1.028,0,0,0,1.795.528l2.358-2.719.89.771V39a1.029,1.029,0,0,1-1.029,1.029H19.457A1.029,1.029,0,0,1,18.428,39V27.685a1.029,1.029,0,1,0-2.057,0V39a3.085,3.085,0,0,0,3.086,3.086H45.17A3.085,3.085,0,0,0,48.256,39V37.27l2.1,1.825a1.029,1.029,0,0,0,1.451-.1l2.695-3.108a1.029,1.029,0,0,0-.1-1.451l-5.051-4.38,2.358-2.72a1.029,1.029,0,0,0-.778-1.7H48.256V6.086A3.085,3.085,0,0,0,45.17,3H19.457a3.085,3.085,0,0,0-3.086,3.086v9.6ZM7.114,37.97v2.057a1.029,1.029,0,0,0,2.057,0V37.97a1.029,1.029,0,0,0-2.057,0ZM45.88,32.487a1.029,1.029,0,0,0-1.451.1l-1.556,1.8-.961-6.7,6.769,0-1.556,1.795a1.029,1.029,0,0,0,.1,1.451l5.051,4.38-1.347,1.554-5.051-4.38Zm-36.709,2.4V21.514a1.029,1.029,0,0,0-2.057,0V34.885a1.029,1.029,0,0,0,2.057,0Zm15.428-7.2a1.029,1.029,0,0,0-1.029-1.029H21.514a1.029,1.029,0,0,0-1.029,1.029v2.057a1.029,1.029,0,0,0,1.029,1.029h2.057A1.029,1.029,0,0,0,24.6,29.742Zm2.057,2.057H36.942a1.029,1.029,0,1,0,0-2.057H26.656a1.029,1.029,0,1,0,0,2.057ZM24.6,21.514a1.029,1.029,0,0,0-1.029-1.029H21.514a1.029,1.029,0,0,0-1.029,1.029v2.057A1.029,1.029,0,0,0,21.514,24.6h2.057A1.029,1.029,0,0,0,24.6,23.571Zm2.057,2.057H43.113a1.029,1.029,0,0,0,0-2.057H26.656a1.029,1.029,0,1,0,0,2.057ZM24.6,15.343a1.029,1.029,0,0,0-1.029-1.029H21.514a1.029,1.029,0,0,0-1.029,1.029V17.4a1.029,1.029,0,0,0,1.029,1.029h2.057A1.029,1.029,0,0,0,24.6,17.4ZM26.656,17.4H43.113a1.029,1.029,0,0,0,0-2.057H26.656a1.029,1.029,0,1,0,0,2.057Z" transform="translate(0 0)" fill="#48bac4" fill-rule="evenodd"/>
  </g>
</svg>
