<svg id="Group_10300" data-name="Group 10300" xmlns="http://www.w3.org/2000/svg" xmlns:xlink="http://www.w3.org/1999/xlink" width="67.25" height="60" viewBox="0 0 67.25 60">
  <defs>
    <clipPath id="clip-path">
      <rect id="Rectangle_1643" data-name="Rectangle 1643" width="67.25" height="60" fill="#48bac4"/>
    </clipPath>
  </defs>
  <g id="Group_10300-2" data-name="Group 10300" clip-path="url(#clip-path)">
    <path id="Path_23409" data-name="Path 23409" d="M45.679,4.725H2.363A2.363,2.363,0,0,1,2.363,0H45.679a2.363,2.363,0,1,1,0,4.725" fill="#48bac4"/>
    <path id="Path_23410" data-name="Path 23410" d="M45.679,104.725H2.363a2.363,2.363,0,0,1,0-4.725H45.679a2.363,2.363,0,0,1,0,4.725" transform="translate(0 -88.186)" fill="#48bac4"/>
    <path id="Path_23411" data-name="Path 23411" d="M29.928,204.725H2.363a2.363,2.363,0,0,1,0-4.725H29.928a2.363,2.363,0,1,1,0,4.725" transform="translate(0 -176.373)" fill="#48bac4"/>
    <path id="Path_23412" data-name="Path 23412" d="M229.539,206.214a2.363,2.363,0,0,1-2.317-2.826l1.646-8.228a10.2,10.2,0,0,1,2.8-5.231L249.492,172.1l.012-.012,4.445-4.445a6.3,6.3,0,0,1,8.91,0l2.884,2.884a6.3,6.3,0,0,1,0,8.91l-22.281,22.282a10.205,10.205,0,0,1-5.232,2.8L230,206.168a2.361,2.361,0,0,1-.463.046M251.175,177.1,235.009,193.27a5.5,5.5,0,0,0-1.508,2.817l-.951,4.753,4.753-.951a5.5,5.5,0,0,0,2.817-1.508l16.166-16.166Zm3.341-3.341,5.112,5.112L262.4,176.1a1.577,1.577,0,0,0,0-2.228l-2.884-2.884a1.577,1.577,0,0,0-2.227,0Z" transform="translate(-200.338 -146.214)" fill="#48bac4"/>
  </g>
</svg>
