<svg id="Group_10298" data-name="Group 10298" xmlns="http://www.w3.org/2000/svg" xmlns:xlink="http://www.w3.org/1999/xlink" width="60" height="60" viewBox="0 0 60 60">
  <defs>
    <clipPath id="clip-path">
      <rect id="Rectangle_1641" data-name="Rectangle 1641" width="60" height="60" fill="#48bac4"/>
    </clipPath>
  </defs>
  <g id="Group_10298-2" data-name="Group 10298" clip-path="url(#clip-path)">
    <path id="Path_23403" data-name="Path 23403" d="M98.388,93h11.233v1.781H98.388Zm28.39-27.95A4.218,4.218,0,1,1,131,60.829a4.222,4.222,0,0,1-4.218,4.218m0-6.561a2.343,2.343,0,1,0,2.343,2.343,2.346,2.346,0,0,0-2.343-2.343" transform="translate(-89.963 -51.764)" fill="#48bac4"/>
    <path id="Path_23404" data-name="Path 23404" d="M120.217,535.94H99.6a1.394,1.394,0,0,0-1.208,1.136V542c0,1.933,1.958,3.4,4.02,3.4h15a3.413,3.413,0,0,0,3.449-3.63v-4.687C120.854,536.56,120.732,535.94,120.217,535.94Z" transform="translate(-89.963 -490.05)" fill="#48bac4"/>
    <path id="Path_23405" data-name="Path 23405" d="M273.569,219.175H299.8v1.781H273.569Zm2.808,4.658h20.685v1.918H276.377Zm2.877,4.658h15v1.918h-15Z" transform="translate(-250.144 -200.408)" fill="#48bac4"/>
    <path id="Path_23406" data-name="Path 23406" d="M56.5,4.658H51.963L48.45.959A3.394,3.394,0,0,0,46.187,0H26.5a3.253,3.253,0,0,0-2.26,1.011L21.037,4.658H17.131A4.062,4.062,0,0,0,13.219,8.6V32.356a4.986,4.986,0,0,0-1.793-.4,5.727,5.727,0,0,0-5.458,4.616H2.134A2.239,2.239,0,0,0,0,38.591v1.875a2.823,2.823,0,0,0,2.821,2.812.946.946,0,0,1,.946.937V52.65A7.592,7.592,0,0,0,11.507,60H55.561A4.361,4.361,0,0,0,60,55.462V8.6a3.719,3.719,0,0,0-3.5-3.939m0,1.918A1.833,1.833,0,0,1,58.151,8.6v3.025L53.737,6.575Zm-39.367,0h2.264L15,11.446V8.6A2.241,2.241,0,0,1,17.131,6.575ZM11.507,33.834a3.736,3.736,0,0,1,2.32.841c.062.048.122.053.183.108a8.32,8.32,0,0,0-.553,1.793H7.882a3.814,3.814,0,0,1,3.625-2.742m14.922,2.742a8.2,8.2,0,0,0-.554-1.778c.039-.035.075-.038.114-.071a3.759,3.759,0,0,1,2.39-.91,3.834,3.834,0,0,1,3.627,2.759H26.429Zm-1.894,0H15.351a4.93,4.93,0,0,1,4.592-3.749A4.93,4.93,0,0,1,24.535,36.575ZM11.507,58.014A5.587,5.587,0,0,1,5.685,52.65V44.214A2.794,2.794,0,0,0,2.9,41.4a.917.917,0,0,1-.912-.937V38.356H37.534v2.109a.946.946,0,0,1-.946.937,2.823,2.823,0,0,0-2.821,2.812V52.65a5.216,5.216,0,0,1-5.389,5.364H11.507ZM39.452,38.356h7.2c.517,0,.741.655.741,1.172v10.31c0,.517-.224.71-.741.71H35.685V44.214a.946.946,0,0,1,.946-.937,2.823,2.823,0,0,0,2.821-2.812Zm18.7,17.106a2.421,2.421,0,0,1-2.59,2.552H33.322a7.065,7.065,0,0,0,2.555-5.548H46.656a2.428,2.428,0,0,0,2.522-2.627V39.528a2.707,2.707,0,0,0-2.522-2.953H33.918a5.817,5.817,0,0,0-5.539-4.616,5.61,5.61,0,0,0-3.547,1.3,6.806,6.806,0,0,0-5.017-2.183,7.189,7.189,0,0,0-4.815,2V16.1a6.159,6.159,0,0,1,1.019-2.82L25.59,2.328a1.794,1.794,0,0,1,.914-.478H46.187a1.738,1.738,0,0,1,.9.481L57.328,13.31a5.471,5.471,0,0,1,.823,2.785Z" fill="#48bac4"/>
  </g>
</svg>
