<svg id="Group_10297" data-name="Group 10297" xmlns="http://www.w3.org/2000/svg" xmlns:xlink="http://www.w3.org/1999/xlink" width="58.889" height="60" viewBox="0 0 58.889 60">
  <defs>
    <clipPath id="clip-path">
      <rect id="Rectangle_1640" data-name="Rectangle 1640" width="58.889" height="60" fill="#48bac4"/>
    </clipPath>
  </defs>
  <g id="Group_10297-2" data-name="Group 10297" clip-path="url(#clip-path)">
    <path id="Path_23402" data-name="Path 23402" d="M29.444,60H1.667a1.667,1.667,0,0,1,0-3.333H26.355l-2.8-4.26a1.667,1.667,0,0,1,2.787-1.829l3.576,5.448,5.448-3.578a1.667,1.667,0,1,1,1.83,2.786L30.405,59.7a1.66,1.66,0,0,1-.961.3m2.351-11.333a1.674,1.674,0,0,1-1.059-.378l0,0,0,0a1.659,1.659,0,0,1-.331-.37q-.592-.9-1.13-1.8H1.667a1.667,1.667,0,1,1,0-3.333H27.473a33.585,33.585,0,0,1-3.35-11.713H1.667a1.667,1.667,0,1,1,0-3.333H24.026a30.42,30.42,0,0,1,4.286-14.5A42.157,42.157,0,0,1,40.273.274a1.667,1.667,0,0,1,2.308.478l.005.008A42.181,42.181,0,0,1,48.407,17.4,31.7,31.7,0,0,1,48,27.732h9.227a1.667,1.667,0,0,1,0,3.333H47.076q-.333.973-.736,1.923a31.3,31.3,0,0,1-6.689,9.79H57.222a1.667,1.667,0,1,1,0,3.333H36.388a1.674,1.674,0,0,1-.426-.055q-1.537,1.21-3.254,2.337a1.66,1.66,0,0,1-.913.274M36.1,34.415l-1.8,8.709a28.532,28.532,0,0,0,9.934-14.048ZM29.513,18.236c-3.356,7.788-2.846,15.9,1.522,24.213l1.936-9.341q.008-.045.019-.09l1.494-7.211Zm10.5-12.568a1.668,1.668,0,0,1,1.634,2.005L37.061,29.8l7.581-4.979a1.663,1.663,0,0,1,.5-.222,29.593,29.593,0,0,0-.034-6.7A39.7,39.7,0,0,0,40.681,4.115a39.784,39.784,0,0,0-9.436,10.706,1.68,1.68,0,0,1,.114.154l4.081,6.215L38.382,7a1.667,1.667,0,0,1,1.63-1.329" transform="translate(0 -0.001)" fill="#48bac4"/>
  </g>
</svg>
