<svg id="Group_10299" data-name="Group 10299" xmlns="http://www.w3.org/2000/svg" xmlns:xlink="http://www.w3.org/1999/xlink" width="61.45" height="60" viewBox="0 0 61.45 60">
  <defs>
    <clipPath id="clip-path">
      <rect id="Rectangle_1642" data-name="Rectangle 1642" width="61.45" height="60" fill="#48bac4"/>
    </clipPath>
  </defs>
  <g id="Group_10299-2" data-name="Group 10299" clip-path="url(#clip-path)">
    <path id="Path_23407" data-name="Path 23407" d="M20.442,0a12.361,12.361,0,0,1,8.827,3.707A12.355,12.355,0,0,1,38.094,0H49.025a2.2,2.2,0,0,1,2.2,2.2V4.4l5.122,0a2.2,2.2,0,0,1,2.175,1.9l.02.3V30.187a19.072,19.072,0,0,0-4.39-3.159V8.792H51.219V25.8a18.948,18.948,0,0,0-4.387-.865V6.726L46.825,6.6l.007-.13V4.387l-8.739,0-.569.02a7.979,7.979,0,0,0-6.061,3.527V30.9a19,19,0,0,0-4.394,7.722V7.935a7.979,7.979,0,0,0-5.5-3.464l-.561-.06-.569-.02-8.738,0L11.711,6.6l-.007.083V42.436l8.106,0a12.728,12.728,0,0,1,6.521,1.795,18.928,18.928,0,0,0,2.988,9.913H2.2a2.2,2.2,0,0,1-2.175-1.9l-.02-.3V6.6A2.2,2.2,0,0,1,1.9,4.424l.3-.02,5.119,0,0-2.207A2.2,2.2,0,0,1,9.214.02l.3-.02ZM7.314,8.792H4.39V49.756H26.175a8.386,8.386,0,0,0-5.8-2.907l-.568-.019H9.511a2.2,2.2,0,0,1-2.175-1.9l-.02-.3Z" fill="#48bac4"/>
    <path id="Path_23408" data-name="Path 23408" d="M333.179,332.764a16.1,16.1,0,1,0,16.1-16.1,16.1,16.1,0,0,0-16.1,16.1M348.554,321.5c.428-.43.671-.446.723-.446s.294.016.723.446a7.28,7.28,0,0,1,1.393,2.283,15.6,15.6,0,0,1,.585,1.662h-5.4a15.621,15.621,0,0,1,.585-1.662,7.282,7.282,0,0,1,1.393-2.283m-5.815,1.548a22.873,22.873,0,0,0-.7,2.4h-1.9a11.777,11.777,0,0,1,2.6-2.4m-5.169,9.713a11.737,11.737,0,0,1,.369-2.927h3.411c-.08.952-.122,1.931-.122,2.927q0,.739.03,1.463h-3.6a11.841,11.841,0,0,1-.09-1.463m5.169,9.713a11.773,11.773,0,0,1-3.6-3.86h2.6a24.49,24.49,0,0,0,1.007,3.86m13.778-17.03a22.858,22.858,0,0,0-.7-2.4,11.773,11.773,0,0,1,2.6,2.4Zm.687,4.39h3.412a11.828,11.828,0,0,1,.278,4.39h-3.6q.03-.724.03-1.463c0-1-.042-1.974-.122-2.927m-1.389,12.64a24.476,24.476,0,0,0,1.007-3.86h2.6a11.773,11.773,0,0,1-3.6,3.86m-10.057-12.64H352.8c.091.932.14,1.912.14,2.927q0,.745-.034,1.463h-7.249q-.034-.718-.034-1.463c0-1.015.049-1.994.14-2.927m6.589,8.78a17.733,17.733,0,0,1-.954,3.125A7.282,7.282,0,0,1,350,344.025c-.428.43-.671.446-.723.446s-.294-.016-.723-.446a7.284,7.284,0,0,1-1.393-2.283,17.733,17.733,0,0,1-.954-3.125Z" transform="translate(-303.924 -288.861)" fill="#48bac4"/>
  </g>
</svg>
