<svg id="Group_10301" data-name="Group 10301" xmlns="http://www.w3.org/2000/svg" xmlns:xlink="http://www.w3.org/1999/xlink" width="73.673" height="60" viewBox="0 0 73.673 60">
  <defs>
    <clipPath id="clip-path">
      <rect id="Rectangle_1644" data-name="Rectangle 1644" width="73.673" height="60" fill="#48bac4"/>
    </clipPath>
  </defs>
  <g id="Group_10301-2" data-name="Group 10301" clip-path="url(#clip-path)">
    <path id="Path_23413" data-name="Path 23413" d="M71.891,5.292a1.781,1.781,0,0,0-1.782,1.782V53.142a3.3,3.3,0,0,1-3.294,3.294H6.859a3.3,3.3,0,0,1-3.294-3.294V4.45l5.4,2.236a1.8,1.8,0,0,0,1.365,0l7.184-2.974L24.7,6.686a1.8,1.8,0,0,0,1.364,0l7.181-2.974,7.181,2.974a1.794,1.794,0,0,0,1.363,0l7.189-2.974,7.2,2.974a1.789,1.789,0,0,0,1.361,0l5.414-2.238V50.214a1.782,1.782,0,0,0,3.564,0V1.783A1.782,1.782,0,0,0,64.047.137l-7.2,2.972L49.654.137a1.774,1.774,0,0,0-1.361,0L41.1,3.11,33.923.137a1.782,1.782,0,0,0-1.364,0L25.378,3.11,18.2.137a1.782,1.782,0,0,0-1.364,0L9.647,3.11,2.464.137A1.781,1.781,0,0,0,0,1.783V53.142A6.859,6.859,0,0,0,6.859,60H66.814a6.86,6.86,0,0,0,6.859-6.859V7.074a1.781,1.781,0,0,0-1.782-1.782" transform="translate(0 0)" fill="#48bac4"/>
    <path id="Path_23414" data-name="Path 23414" d="M83.3,117.037H98.37a2.105,2.105,0,0,1,2.105,2.105v14.312a2.105,2.105,0,0,1-2.105,2.105H83.3a2.105,2.105,0,0,1-2.105-2.105V119.142a2.105,2.105,0,0,1,2.105-2.105" transform="translate(-69.509 -100.196)" fill="#48bac4"/>
    <path id="Path_23415" data-name="Path 23415" d="M266.206,118.452h13.629a1.425,1.425,0,1,1,0,2.851H266.206a1.425,1.425,0,0,1,0-2.851" transform="translate(-226.681 -101.408)" fill="#48bac4"/>
    <path id="Path_23416" data-name="Path 23416" d="M266.206,175.952h13.629a1.425,1.425,0,0,1,1.425,1.425h0a1.425,1.425,0,0,1-1.425,1.425H266.206a1.425,1.425,0,0,1-1.425-1.425h0a1.425,1.425,0,0,1,1.425-1.425" transform="translate(-226.681 -150.634)" fill="#48bac4"/>
    <path id="Path_23417" data-name="Path 23417" d="M266.206,233.474h13.629a1.425,1.425,0,0,1,1.425,1.425h0a1.425,1.425,0,0,1-1.425,1.425H266.206a1.425,1.425,0,0,1-1.425-1.425h0a1.425,1.425,0,0,1,1.425-1.425" transform="translate(-226.681 -199.879)" fill="#48bac4"/>
    <path id="Path_23418" data-name="Path 23418" d="M82.617,290.974h40.046a1.425,1.425,0,0,1,1.425,1.425h0a1.425,1.425,0,0,1-1.425,1.425H82.617a1.425,1.425,0,0,1-1.426-1.425h0a1.425,1.425,0,0,1,1.426-1.425" transform="translate(-69.508 -249.105)" fill="#48bac4"/>
  </g>
</svg>
