<svg id="Pub-and-Marketing-Strategy" xmlns="http://www.w3.org/2000/svg" width="66.032" height="80" viewBox="0 0 66.032 80">
  <path id="Path_23279" data-name="Path 23279" d="M2.641,8H63.39V2.667H2.641V8ZM5.283,53.333H60.749V10.667H5.283ZM0,0V10.667H2.641V56H30.433L14.776,77.884a1.343,1.343,0,0,0,.3,1.863,1.312,1.312,0,0,0,1.844-.3L31.7,58.79V78.666a1.321,1.321,0,1,0,2.641,0V58.79L49.114,79.447a1.312,1.312,0,0,0,1.844.3,1.342,1.342,0,0,0,.3-1.863L35.6,56H63.39V10.667h2.641V0Z" fill="#48bac4" fill-rule="evenodd"/>
  <path id="Path_23280" data-name="Path 23280" d="M53.865,34.251a1.187,1.187,0,0,0-1.765,0l-9.27,10.2-2.916-3.206a1.19,1.19,0,0,0-1.8,0,1.5,1.5,0,0,0,0,1.977l3.813,4.2a1.19,1.19,0,0,0,1.8,0L53.9,36.228a1.5,1.5,0,0,0-.032-1.978M19.314,24.333V16.44a9.341,9.341,0,0,1,7.9,7.893ZM16.645,34.919a9.331,9.331,0,0,1,0-18.479v9.227A1.333,1.333,0,0,0,17.98,27h9.239a9.345,9.345,0,0,1-10.574,7.919ZM31.332,24.333H29.917a12.024,12.024,0,0,0-10.6-10.588V12.333a1.335,1.335,0,0,0-2.669,0v1.412A12,12,0,1,0,29.917,27h1.415a1.333,1.333,0,1,0,0-2.667ZM6,47.825H8.54v-2.54H6Zm5.079,0H31.4v-2.54H11.079ZM6,42.746H8.54v-2.54H6Zm5.079,0H31.4v-2.54H11.079ZM35.206,21.159h2.54v-2.54h-2.54Zm5.079,0H55.524v-2.54H40.286Zm-5.079-5.079h2.54V13.54h-2.54Zm5.079,0H55.524V13.54H40.286ZM35.206,31.317h2.54v-2.54h-2.54Zm5.079,0H55.524v-2.54H40.286Zm-5.079-5.079h2.54V23.7h-2.54Zm5.079,0H55.524V23.7H40.286Z" transform="translate(1.619 2.968)" fill="#48bac4" fill-rule="evenodd"/>
</svg>
