<svg id="Book-Planing" xmlns="http://www.w3.org/2000/svg" width="72.5" height="80" viewBox="0 0 72.5 80">
  <path id="Path_23259" data-name="Path 23259" d="M0,0V57.5H27.5V55H2.5V2.5H30.733L40,11.767V20h2.5V10.732L31.768,0Z" fill="#48bac4" fill-rule="evenodd"/>
  <path id="Path_23260" data-name="Path 23260" d="M34,19h2.5V14H34ZM26.5,51.5H4V4H26.5V6.5H6.5V49h20Zm2.5-30V79H71.5V32.233L60.766,21.5ZM31.5,24H59.731L69,33.267V76.5H31.5ZM59,19H56.5V7.75A1.25,1.25,0,0,0,55.25,6.5H44V4H55.25A3.755,3.755,0,0,1,59,7.75ZM26.5,74H15.25a3.755,3.755,0,0,1-3.75-3.75V59H14V70.25a1.25,1.25,0,0,0,1.25,1.25H26.5Z" transform="translate(1 1)" fill="#48bac4" fill-rule="evenodd"/>
  <path id="Path_23261" data-name="Path 23261" d="M31.5,32.25H49v-2.5H31.5Zm0,5H49v-2.5H31.5Zm0,5H59v-2.5H31.5Zm0,5H59v-2.5H31.5Zm0,5H59v-2.5H31.5Zm0,5H59v-2.5H31.5Zm0,5H59v-2.5H31.5Zm0,5H59v-2.5H31.5Zm0,5H59v-2.5H31.5Zm3.75-60H24V1h2.5V9.75h8.75Zm30,22.5H54V23.5h2.5v8.75h8.75Z" transform="translate(6 0.25)" fill="#48bac4" fill-rule="evenodd"/>
</svg>
