<svg xmlns="http://www.w3.org/2000/svg" width="72.38" height="80" viewBox="0 0 72.38 80">
  <g id="Beta-Reader-Testing" transform="translate(0 0.001)">
    <path id="Path_23252" data-name="Path 23252" d="M13.805,45.978l12.8,2.508a1.2,1.2,0,0,0,1.42-1.031,1.284,1.284,0,0,0-.975-1.5L14.25,43.45a1.226,1.226,0,0,0-1.42,1.03,1.284,1.284,0,0,0,.975,1.5m0,6.349,12.8,2.508a1.2,1.2,0,0,0,1.42-1.03,1.283,1.283,0,0,0-.975-1.5L14.25,49.8a1.226,1.226,0,0,0-1.42,1.03,1.284,1.284,0,0,0,.975,1.5m12.03,6.635L10.363,56.146a1.152,1.152,0,0,0-1.343.907,1.133,1.133,0,0,0,.923,1.318l15.473,2.816a1.2,1.2,0,0,0,.212.019,1.146,1.146,0,0,0,1.13-.926,1.131,1.131,0,0,0-.922-1.318M59.773,32.9a1.187,1.187,0,0,0-1.387-.883L41.718,34.89a1.114,1.114,0,0,0-.952,1.288,1.17,1.17,0,0,0,1.168.9,1.306,1.306,0,0,0,.22-.019l16.666-2.87a1.112,1.112,0,0,0,.952-1.288m-3.809,5.228A1.224,1.224,0,0,0,54.542,37.1l-12.8,2.507a1.284,1.284,0,0,0-.976,1.5,1.2,1.2,0,0,0,1.421,1.03l12.8-2.507a1.284,1.284,0,0,0,.976-1.5m-2.634,6.59L41.7,47.158a1.32,1.32,0,0,0-.937,1.54,1.219,1.219,0,0,0,1.149,1.079.967.967,0,0,0,.216-.023l11.625-2.436a1.322,1.322,0,0,0,.937-1.542,1.187,1.187,0,0,0-1.365-1.056M43.182,54.138,53.547,52.39v4.461L43.182,58.594V54.138Zm-1.8,6.621a1.8,1.8,0,0,0,1.2.447,1.926,1.926,0,0,0,.306-.025h.006L54.25,59.268a2.144,2.144,0,0,0,1.733-2.1v-5.51a1.9,1.9,0,0,0-.635-1.436,1.823,1.823,0,0,0-1.5-.419L42.5,51.715a2.131,2.131,0,0,0-1.754,2.1v5.508a1.894,1.894,0,0,0,.634,1.434ZM26.333,34.478l-5.3-.852a1.178,1.178,0,0,0-1.365.922,1.134,1.134,0,0,0,.97,1.3l5.041.811v4.419l-14.31-2.3V34.349l3.911.63a1.178,1.178,0,0,0,1.364-.922,1.134,1.134,0,0,0-.969-1.3l-4.566-.735a1.88,1.88,0,0,0-1.472.377A1.7,1.7,0,0,0,9,33.73v5.282a2.009,2.009,0,0,0,1.714,1.938L25.939,43.4a1.944,1.944,0,0,0,.309.024,1.852,1.852,0,0,0,1.163-.4,1.7,1.7,0,0,0,.636-1.33V36.414a2.011,2.011,0,0,0-1.714-1.938" transform="translate(2.428 8.634)" fill="#48bac4" fill-rule="evenodd"/>
    <path id="Path_23253" data-name="Path 23253" d="M70.018,57.693a3.632,3.632,0,0,1-3.632,3.622H64.278a1.527,1.527,0,0,1-1.526-1.524V51.1a1.527,1.527,0,0,1,1.526-1.524h2.107A3.633,3.633,0,0,1,70.017,53.2v4.494ZM6.9,70.168V64.726h1.2a3.9,3.9,0,0,0,3.893-3.891V52.145a3.9,3.9,0,0,0-3.893-3.889H6.9V36a1.732,1.732,0,0,1,.574-1.361,1.657,1.657,0,0,1,1.373-.326L34.865,38.8V77.417L9.244,73A3,3,0,0,1,6.9,70.167ZM2.362,58.737V54.243a3.633,3.633,0,0,1,3.632-3.627h2.1a1.532,1.532,0,0,1,1.531,1.529v8.689a1.531,1.531,0,0,1-1.531,1.529h-2.1a3.632,3.632,0,0,1-3.632-3.627ZM20.927,24.4V16.474c5.342-1.255,8.263-.151,11.343,1.016a21.848,21.848,0,0,0,8.395,1.821,32.066,32.066,0,0,0,10.484-2.074V24.4c0,3.324-1.977,7.321-5.178,10.5l-9.924,1.71L26.1,34.895C22.9,31.717,20.927,27.72,20.927,24.4ZM28.8,3.873A18.374,18.374,0,0,1,45.6,4.954a11.939,11.939,0,0,1,5.531,9.784c-9.917,3.61-14.035,2.052-18.023.542a20.414,20.414,0,0,0-7.761-1.732,21.044,21.044,0,0,0-4.34.485A12.406,12.406,0,0,1,28.8,3.874ZM67.567,47.326V36a4.1,4.1,0,0,0-1.413-3.166,3.984,3.984,0,0,0-3.3-.85L49.67,34.261a17,17,0,0,0,3.842-9.867V15.55A14.5,14.5,0,0,0,46.889,2.978C41.617-.463,33.968-.974,27.852,1.711c-5.9,2.59-9.286,7.634-9.286,13.84V24.4a16.981,16.981,0,0,0,3.839,9.86L9.243,31.99a3.984,3.984,0,0,0-3.3.848A4.1,4.1,0,0,0,4.535,36V48.436A6,6,0,0,0,0,54.243v4.5a6,6,0,0,0,4.533,5.807v5.623a5.336,5.336,0,0,0,4.31,5.157l27,4.658h.005a1.13,1.13,0,0,0,.2.017,1.1,1.1,0,0,0,.194-.017h.008L48.9,77.8a1.18,1.18,0,1,0-.4-2.326L37.23,77.415V38.8l9.519-1.641h.009l16.5-2.843a1.659,1.659,0,0,1,1.374.326,1.734,1.734,0,0,1,.574,1.361V47.212H64.28A3.891,3.891,0,0,0,60.391,51.1v8.694a3.891,3.891,0,0,0,3.888,3.886H65.2v6.491A3,3,0,0,1,62.855,73l-8.22,1.417a1.18,1.18,0,0,0,.2,2.344,1.128,1.128,0,0,0,.2-.018l8.22-1.416a5.335,5.335,0,0,0,4.31-5.157V63.561a6,6,0,0,0,4.813-5.867V53.2a6,6,0,0,0-4.813-5.87Z" transform="translate(0 0)" fill="#48bac4" fill-rule="evenodd"/>
  </g>
</svg>
