<svg id="Publishing-Navigation" xmlns="http://www.w3.org/2000/svg" width="95.236" height="80" viewBox="0 0 95.236 80">
  <path id="Path_23281" data-name="Path 23281" d="M8.856,68.572H81.238V3.81H8.855V68.572ZM83.143,72.38H6.953a1.9,1.9,0,0,1-1.9-1.9V1.9A1.9,1.9,0,0,1,6.953,0h76.19a1.9,1.9,0,0,1,1.9,1.9V70.475a1.9,1.9,0,0,1-1.9,1.9Z" transform="translate(2.572)" fill="#48bac4" fill-rule="evenodd"/>
  <path id="Path_23282" data-name="Path 23282" d="M40.572,57.1h3.81V7.571h-3.81ZM10.1,38.048H36.762v-3.81H10.1Zm0,7.62H36.762v-3.81H10.1Zm0,7.618H36.762v-3.81H10.1Zm38.1-15.238H74.857v-3.81H48.19ZM48.19,19H74.857v-3.81H48.19Zm0,26.667H74.857v-3.81H48.19Zm0,7.618H74.857v-3.81H48.19Zm0-41.9H74.857V7.571H48.19ZM59.62,28.523h3.81V24.715H59.62Zm-7.62,0h3.81V24.715H52Zm15.238,0h3.81V24.715h-3.81Z" transform="translate(5.143 3.857)" fill="#48bac4" fill-rule="evenodd"/>
  <path id="Path_23283" data-name="Path 23283" d="M93.333,77.428h-38.1a1.9,1.9,0,0,1-1.346-.558L47.62,70.6,41.346,76.87A1.9,1.9,0,0,1,40,77.428H1.9a1.9,1.9,0,0,1-1.9-1.9V5.048H3.81V73.619h35.4l7.06-7.061a1.9,1.9,0,0,1,2.694,0l7.061,7.061h35.4V5.048h3.81V75.523a1.9,1.9,0,0,1-1.9,1.9" transform="translate(0 2.572)" fill="#48bac4" fill-rule="evenodd"/>
  <path id="Path_23284" data-name="Path 23284" d="M13.9,26.619H32.954V11.381H13.9Zm-3.81,3.81H36.762V7.571H10.1Z" transform="translate(5.143 3.857)" fill="#48bac4" fill-rule="evenodd"/>
</svg>
