<svg id="Editing" xmlns="http://www.w3.org/2000/svg" width="75" height="80" viewBox="0 0 75 80">
  <path id="Path_23267" data-name="Path 23267" d="M52.75,77.5H5.25A1.249,1.249,0,0,1,4,76.25v-65A1.249,1.249,0,0,1,5.25,10H11.5v2.5h-5V75h45V20H54V76.25a1.249,1.249,0,0,1-1.25,1.25" transform="translate(1 2.5)" fill="#48bac4" fill-rule="evenodd"/>
  <path id="Path_23268" data-name="Path 23268" d="M0,63H2.5V8H0Z" transform="translate(0 2)" fill="#48bac4" fill-rule="evenodd"/>
  <path id="Path_23269" data-name="Path 23269" d="M16.66,17.5H50a7.5,7.5,0,0,0,0-15H16.608A9.975,9.975,0,0,1,20,10a9.508,9.508,0,0,1-3.34,7.5M50,20H11.25a1.25,1.25,0,0,1-.2-2.482C11.3,17.472,17.5,16.324,17.5,10a7.5,7.5,0,0,0-15,0H0A10.012,10.012,0,0,1,10,0H50a10,10,0,0,1,0,20M12.5,35h35V32.5h-35Zm0,5h35V37.5h-35Zm0,5h35V42.5h-35Zm0,5h35V47.5h-35Zm0,5h35V52.5h-35Zm0,5h35V57.5h-35Zm0,5h35V62.5h-35ZM28.75,27.5h2.5V25h-2.5Zm5,0h2.5V25h-2.5Zm-10,0h2.5V25h-2.5ZM35,72.5H47.5V70H35Z" fill="#48bac4" fill-rule="evenodd"/>
  <path id="Path_23270" data-name="Path 23270" d="M5,17h5V14.5H5ZM65,62H62.5a3.755,3.755,0,0,1-3.75-3.75V37h2.5V58.25A1.25,1.25,0,0,0,62.5,59.5H65Zm0-47.5h7.5V12H65ZM65,67h7.5V64.5H65Z" transform="translate(1.25 3)" fill="#48bac4" fill-rule="evenodd"/>
  <path id="Path_23271" data-name="Path 23271" d="M54.5,7.838V74.992a2.5,2.5,0,0,0,5,0V7.838L57,3.67ZM57,79.992a5.005,5.005,0,0,1-5-5V7.492a1.24,1.24,0,0,1,.179-.644L55.929.6a1.3,1.3,0,0,1,2.143,0l3.75,6.25A1.24,1.24,0,0,1,62,7.492v67.5a5.005,5.005,0,0,1-5,5Z" transform="translate(13 0.008)" fill="#48bac4" fill-rule="evenodd"/>
</svg>
