<svg id="Book-Coaching" xmlns="http://www.w3.org/2000/svg" width="80" height="80" viewBox="0 0 80 80">
  <path id="Path_23254" data-name="Path 23254" d="M73.125,37.5h-47.5V35h45V12.5h-45V10h47.5Zm-60-35a5,5,0,1,0,5,5,5.005,5.005,0,0,0-5-5m0,12.5a7.5,7.5,0,1,1,7.5-7.5,7.508,7.508,0,0,1-7.5,7.5" transform="translate(1.875)" fill="#48bac4" fill-rule="evenodd"/>
  <path id="Path_23255" data-name="Path 23255" d="M80,46.25H22.5V23.75h20v-5H10a7.508,7.508,0,0,0-7.5,7.5v17.5h5v-10H10v12.5H0v-20a10.012,10.012,0,0,1,10-10H45v10H25v17.5H77.5V6.25H25V3.75H80Z" transform="translate(0 1.25)" fill="#48bac4" fill-rule="evenodd"/>
  <path id="Path_23256" data-name="Path 23256" d="M27.5,32.5H75V30H27.5ZM76.251,70H3.749C1.717,70,0,67.709,0,65V61.775l9.38-5.36,1.24,2.171L2.5,63.225V65c0,1.531.88,2.5,1.251,2.5h72.5c.372,0,1.251-.969,1.251-2.5V63.225l-8.12-4.64,1.24-2.171L80,61.775V65c0,2.709-1.717,5-3.751,5" transform="translate(0 10)" fill="#48bac4" fill-rule="evenodd"/>
  <path id="Path_23257" data-name="Path 23257" d="M49.569,57.322l-10.6-5.3,1.119-2.236,9.4,4.7,8.168-4.668L58.9,51.99Zm-27.579,0L12.66,51.99l1.24-2.171,8.168,4.668,9.4-4.7,1.119,2.236Z" transform="translate(4.22 16.596)" fill="#48bac4" fill-rule="evenodd"/>
  <path id="Path_23258" data-name="Path 23258" d="M12.188,49.375c-3.787,0-5,1.367-5,5.625,0,3.333,1.752,6.875,5,6.875s5-3.541,5-6.875c0-4.259-1.216-5.625-5-5.625m0,15c-4.276,0-7.5-4.031-7.5-9.375,0-3.783.853-8.125,7.5-8.125s7.5,4.343,7.5,8.125c0,5.344-3.227,9.375-7.5,9.375m26.251-15c-3.785,0-5,1.367-5,5.625,0,3.333,1.752,6.875,5,6.875s5-3.541,5-6.875c0-4.259-1.215-5.625-5-5.625m0,15c-4.275,0-7.5-4.031-7.5-9.375,0-3.783.853-8.125,7.5-8.125s7.5,4.343,7.5,8.125c0,5.344-3.225,9.375-7.5,9.375m26.251-15c-3.787,0-5,1.367-5,5.625,0,3.333,1.752,6.875,5,6.875s5-3.541,5-6.875c0-4.259-1.216-5.625-5-5.625m0,15c-4.276,0-7.5-4.031-7.5-9.375,0-3.783.853-8.125,7.5-8.125s7.5,4.343,7.5,8.125c0,5.344-3.224,9.375-7.5,9.375M23.438,70.626h2.5V66.875h-2.5Zm27.5,0h2.5V66.875h-2.5ZM12.188,19.375h2.5v-2.5h-2.5Zm0,5h2.5v-2.5h-2.5Z" transform="translate(1.562 5.625)" fill="#48bac4" fill-rule="evenodd"/>
</svg>
