<svg xmlns="http://www.w3.org/2000/svg" width="77.806" height="80" viewBox="0 0 77.806 80">
  <g id="Direct-Submissions-to-Publishers" transform="translate(0.001)">
    <g id="Group_10174" data-name="Group 10174" transform="translate(-0.001 46.026)">
      <path id="Path_23262" data-name="Path 23262" d="M73.883,7.393,45.895,23.325H30.529L26.108,11.356l8.714-4.779H54.084a2.621,2.621,0,0,1,1.847.754,2.478,2.478,0,0,1,.616,1,2.1,2.1,0,0,1,.152.826,2.6,2.6,0,0,1-2.615,2.578H39.711v2.576H54.085A5.192,5.192,0,0,0,59.25,9.765L71.264,2.928a2.647,2.647,0,0,1,2.613,0,2.563,2.563,0,0,1,.006,4.465ZM19.064,29.952,11.915,10.57l9.823-3.527,7.15,19.373-9.824,3.536Zm-10.715,1.1L2.992,16.521l7.367-2.644L15.724,28.4,8.35,31.055ZM77.1,2.583A5.3,5.3,0,0,0,69.963.7L58.809,7.04a4.9,4.9,0,0,0-1.03-1.53A5.226,5.226,0,0,0,54.086,4h-19.6a1.31,1.31,0,0,0-.634.162L25.207,8.9,23.75,4.959a1.313,1.313,0,0,0-1.674-.773L9.792,8.592a1.3,1.3,0,0,0-.739.665,1.272,1.272,0,0,0-.045.987l.447,1.21L.862,14.538a1.3,1.3,0,0,0-.739.666,1.266,1.266,0,0,0-.045.987l6.26,16.951a1.311,1.311,0,0,0,1.674.772l8.6-3.084.447,1.21a1.312,1.312,0,0,0,1.674.772L31.014,28.4a1.284,1.284,0,0,0,.785-1.65l-.321-.854H46.244a1.322,1.322,0,0,0,.653-.171l28.3-16.1A5.112,5.112,0,0,0,77.1,2.583Z" transform="translate(0.001 -0.017)" fill="#48bac4" fill-rule="evenodd"/>
    </g>
    <path id="Path_23263" data-name="Path 23263" d="M12.617,36.833H33.549V2.632H12.617v34.2ZM38.783,5.262V40.78a1.309,1.309,0,1,1-2.617,0V5.262ZM41.4,36.833H62.333V2.632H41.4v34.2ZM11.309,39.465H33.55V40.78a3.924,3.924,0,1,0,7.849,0V39.464H63.641a1.311,1.311,0,0,0,1.309-1.315V1.315A1.312,1.312,0,0,0,63.641,0H40.092a1.311,1.311,0,0,0-1.309,1.316V2.631H36.166V1.315A1.312,1.312,0,0,0,34.858,0H11.309A1.311,1.311,0,0,0,10,1.316V38.149a1.313,1.313,0,0,0,1.309,1.316Z" transform="translate(2.779)" fill="#48bac4" fill-rule="evenodd"/>
    <path id="Path_23264" data-name="Path 23264" d="M7.342,42.337H32.836V39.779H8.684V4H6V41.059a1.311,1.311,0,0,0,1.342,1.278M16.223,9.112h2.556V6.556H16.223Zm5.112,0H31.558V6.556H21.335Zm-5.112,5.112H31.558V11.667H16.223Z" transform="translate(1.668 1.112)" fill="#48bac4" fill-rule="evenodd"/>
    <path id="Path_23265" data-name="Path 23265" d="M14,20.613H29.335V18.057H14Zm0,5.112H29.335V23.169H14ZM40.836,42.337H66.33a1.311,1.311,0,0,0,1.342-1.278V4H64.988V39.779H40.836Zm11.5-33.225h5.112V6.556H52.337Zm-10.223,0h7.667V6.556H42.114Zm0,5.112H57.449V11.667H42.114Z" transform="translate(3.891 1.112)" fill="#48bac4" fill-rule="evenodd"/>
    <path id="Path_23266" data-name="Path 23266" d="M45.449,18.667H60.783V16.112H45.449Zm0,5.112H60.783V21.223H45.449ZM17.335,27.613H32.67V25.057H17.335Zm28.114,0H60.783V25.057H45.449ZM73.562,35.28h2.556V32.724H73.562Zm0-5.112h2.556V27.613H73.562Zm0-6.39h2.556V11H73.562ZM2,35.28H4.556V32.724H2Zm0-5.112H4.556V27.613H2Zm0-6.39H4.556V11H2Z" transform="translate(0.556 3.057)" fill="#48bac4" fill-rule="evenodd"/>
  </g>
</svg>
