<svg xmlns="http://www.w3.org/2000/svg" width="91.43" height="80" viewBox="0 0 91.43 80">
  <g id="Agent-Introductions" transform="translate(0 0)">
    <path id="Path_23236" data-name="Path 23236" d="M23.179,17.607H51.75V14.75H23.179ZM60.321,50.465a1.431,1.431,0,0,1-1.009-2.441l5.295-5.295V39.873l4.705-4.705a1.429,1.429,0,0,1,2.02,2.02l-3.868,3.867v2.858l-6.133,6.133a1.425,1.425,0,0,1-1.01.418M54.607,67.607A6.273,6.273,0,0,1,50.74,65.76L35.024,50.045a1.429,1.429,0,0,1,2.02-2.02L52.76,63.74a3.55,3.55,0,0,0,1.847,1.01,2.86,2.86,0,0,0,2.857-2.857,3.55,3.55,0,0,0-1.014-1.852L40.74,44.331a1.429,1.429,0,0,1,2.02-2.02L58.475,58.026a6.289,6.289,0,0,1,1.845,3.867,5.72,5.72,0,0,1-5.714,5.714" transform="translate(8.25 5.25)" fill="#48bac4" fill-rule="evenodd"/>
    <path id="Path_23237" data-name="Path 23237" d="M45.965,61.768A6.274,6.274,0,0,1,42.1,59.921L27.812,45.635a1.429,1.429,0,0,1,2.02-2.02L44.117,57.9a3.55,3.55,0,0,0,1.847,1.01,2.86,2.86,0,0,0,2.857-2.857A3.544,3.544,0,0,0,47.806,54.2a1.428,1.428,0,0,1,2.024-2.015,6.273,6.273,0,0,1,1.848,3.867,5.72,5.72,0,0,1-5.715,5.714" transform="translate(9.75 15.375)" fill="#48bac4" fill-rule="evenodd"/>
    <path id="Path_23238" data-name="Path 23238" d="M44.143,69.5a6.273,6.273,0,0,1-3.867-1.847L14.143,41.52V37.234l-5.3-5.3a1.429,1.429,0,0,1,2.02-2.02L17,36.052v4.285l25.3,25.3a3.545,3.545,0,0,0,1.847,1.01A2.86,2.86,0,0,0,47,63.786a3.554,3.554,0,0,0-1.014-1.852,1.429,1.429,0,0,1,2.024-2.016,6.29,6.29,0,0,1,1.847,3.868A5.72,5.72,0,0,1,44.143,69.5" transform="translate(3 10.5)" fill="#48bac4" fill-rule="evenodd"/>
    <path id="Path_23239" data-name="Path 23239" d="M18.357,48.982a5.72,5.72,0,0,1-5.714-5.714A6.281,6.281,0,0,1,14.49,39.4a1.429,1.429,0,1,1,2.02,2.02,3.545,3.545,0,0,0-1.01,1.847,2.86,2.86,0,0,0,2.857,2.857,3.559,3.559,0,0,0,1.852-1.014,1.429,1.429,0,0,1,2.016,2.024,6.283,6.283,0,0,1-3.868,1.847" transform="translate(4.5 13.875)" fill="#48bac4" fill-rule="evenodd"/>
    <path id="Path_23240" data-name="Path 23240" d="M22.571,53.2a5.72,5.72,0,0,1-5.714-5.714A6.281,6.281,0,0,1,18.7,43.615a1.429,1.429,0,0,1,2.02,2.02,3.55,3.55,0,0,0-1.01,1.847,2.86,2.86,0,0,0,2.857,2.857,3.544,3.544,0,0,0,1.852-1.014,1.429,1.429,0,0,1,2.016,2.024A6.283,6.283,0,0,1,22.571,53.2" transform="translate(6 15.375)" fill="#48bac4" fill-rule="evenodd"/>
    <path id="Path_23241" data-name="Path 23241" d="M26.786,57.411A5.721,5.721,0,0,1,21.071,51.7a6.284,6.284,0,0,1,1.848-3.867,1.429,1.429,0,1,1,2.02,2.02,3.545,3.545,0,0,0-1.01,1.847,2.86,2.86,0,0,0,2.857,2.858,3.55,3.55,0,0,0,1.851-1.014,1.428,1.428,0,0,1,2.016,2.023,6.281,6.281,0,0,1-3.867,1.848" transform="translate(7.5 16.875)" fill="#48bac4" fill-rule="evenodd"/>
    <path id="Path_23242" data-name="Path 23242" d="M32.125,74.75a5.72,5.72,0,0,1-5.714-5.714,6.281,6.281,0,0,1,1.847-3.867,1.429,1.429,0,0,1,2.02,2.02,3.545,3.545,0,0,0-1.01,1.847,2.86,2.86,0,0,0,2.857,2.857,3.55,3.55,0,0,0,1.851-1.014A1.429,1.429,0,0,1,35.992,72.9a6.278,6.278,0,0,1-3.867,1.847M57.839,59.035a6.271,6.271,0,0,1-3.867-1.847,1.429,1.429,0,0,1,2.02-2.02,3.543,3.543,0,0,0,1.847,1.012A2.86,2.86,0,0,0,60.7,53.321a3.546,3.546,0,0,0-1.014-1.851L40.7,32.484V24.75H38.431l-6.725,6.725a6.274,6.274,0,0,1-3.867,1.845,5.72,5.72,0,0,1-5.714-5.714,6.281,6.281,0,0,1,1.847-3.867l8.572-8.571a1.429,1.429,0,1,1,2.02,2.02l-8.572,8.569a3.554,3.554,0,0,0-1.01,1.848,2.86,2.86,0,0,0,2.857,2.857,3.544,3.544,0,0,0,1.852-1.014l7.557-7.557h6.305V31.3L61.706,49.454a6.281,6.281,0,0,1,1.848,3.867,5.72,5.72,0,0,1-5.715,5.715" transform="translate(7.875 5.25)" fill="#48bac4" fill-rule="evenodd"/>
    <path id="Path_23243" data-name="Path 23243" d="M43.268,32.054H38.983V29.2h4.285a2.86,2.86,0,0,0,2.857-2.857h2.857a5.721,5.721,0,0,1-5.714,5.715" transform="translate(13.875 9.375)" fill="#48bac4" fill-rule="evenodd"/>
    <g id="Group_10173" data-name="Group 10173" transform="translate(55.715 0.001)">
      <path id="Path_23244" data-name="Path 23244" d="M27.143,42.856H24.285a1.418,1.418,0,0,1-1.01-.419L.419,19.581A1.416,1.416,0,0,1,0,18.57V15.715A1.418,1.418,0,0,1,.419,14.7L14.7.42a1.429,1.429,0,0,1,2.02,2.02L2.857,16.3v1.675L24.877,40h1.675l6.724-6.725a1.429,1.429,0,0,1,2.02,2.02l-7.143,7.143a1.422,1.422,0,0,1-1.01.42" transform="translate(0 -0.001)" fill="#48bac4" fill-rule="evenodd"/>
    </g>
    <path id="Path_23245" data-name="Path 23245" d="M11.429,42.857H8.569a1.418,1.418,0,0,1-1.009-.419L.419,35.3a1.429,1.429,0,1,1,2.02-2.02L9.162,40h1.673l22.02-22.02V16.305L18.99,2.438A1.429,1.429,0,1,1,21.01.418L35.295,14.705a1.423,1.423,0,0,1,.418,1.01v2.857a1.423,1.423,0,0,1-.418,1.01L12.438,42.438a1.419,1.419,0,0,1-1.009.42" fill="#48bac4" fill-rule="evenodd"/>
    <path id="Path_23246" data-name="Path 23246" d="M79.929,25.732a1.429,1.429,0,0,1-1.01-2.439l2.857-2.856a1.429,1.429,0,0,1,2.02,2.02l-2.858,2.856a1.421,1.421,0,0,1-1.009.42m-71.429,0a1.421,1.421,0,0,1-1.01-.419L4.633,22.456a1.429,1.429,0,0,1,2.02-2.02L9.51,23.294A1.428,1.428,0,0,1,8.5,25.732" transform="translate(1.5 7.125)" fill="#48bac4" fill-rule="evenodd"/>
  </g>
</svg>
