<svg id="Ghostwriting" xmlns="http://www.w3.org/2000/svg" width="80" height="80" viewBox="0 0 80 80">
  <g id="Group_10175" data-name="Group 10175" transform="translate(10.02)">
    <path id="Path_23272" data-name="Path 23272" d="M2.476,22.725l-2.46-.45C2.484,8.745,14.252,0,30,0s27.513,8.744,29.98,22.275l-2.46.45C55.276,10.438,44.473,2.5,30,2.5S4.717,10.438,2.476,22.725" transform="translate(-0.016)" fill="#48bac4" fill-rule="evenodd"/>
  </g>
  <path id="Path_23273" data-name="Path 23273" d="M23.7,51.946C15.89,48.187,10.768,41.8,8.04,32.42l2.4-.7c2.554,8.781,7.113,14.492,14.341,17.972L23.7,51.947Zm28.6-.007L51.183,49.7c7.081-3.528,11.911-9.576,14.357-17.98l2.4.7c-2.65,9.1-7.913,15.669-15.642,19.52" transform="translate(2.01 7.93)" fill="#48bac4" fill-rule="evenodd"/>
  <path id="Path_23274" data-name="Path 23274" d="M65,29.75h2.5v-7.5H65ZM26.25,31H5A5,5,0,0,1,5,21H31.25v2.5H5a2.5,2.5,0,0,0,0,5H26.25Z" transform="translate(0 5.25)" fill="#48bac4" fill-rule="evenodd"/>
  <path id="Path_23275" data-name="Path 23275" d="M71,31H49.75V28.5h20.9L74.82,26l-4.166-2.5H49.75V21H71a1.247,1.247,0,0,1,.644.179l6.25,3.75a1.25,1.25,0,0,1,0,2.143l-6.25,3.75A1.247,1.247,0,0,1,71,31M11,29.75h2.5v-7.5H11Zm-5,0H8.5v-7.5H6Z" transform="translate(1.5 5.25)" fill="#48bac4" fill-rule="evenodd"/>
  <path id="Path_23276" data-name="Path 23276" d="M42.75,51h-2.5l.052-2.859L44,35.818V23.5a1.25,1.25,0,1,0-2.5,0H39V22.25a1.25,1.25,0,0,0-2.5,0H34v-2.5a1.25,1.25,0,0,0-2.5,0v2.5H29a1.25,1.25,0,0,0-2.5,0V33.5H24V22.25a3.75,3.75,0,0,1,5.131-3.486,3.751,3.751,0,0,1,7.238,0,3.747,3.747,0,0,1,4.541,1.47A3.748,3.748,0,0,1,46.5,23.5l-.053,12.859-3.7,12.324Z" transform="translate(6 4)" fill="#48bac4" fill-rule="evenodd"/>
  <path id="Path_23277" data-name="Path 23277" d="M30,23.5h2.5V21H30Zm5,0h2.5V21H35Zm5,0h2.5V22.25H40ZM28.75,49.75h-2.5V45.166l-3.619-4.857L20,35.045V28.5h6.25V31H22.5v3.455l2.317,4.635,3.933,5.244ZM30,56h2.5V53.5H30Z" transform="translate(5 5.25)" fill="#48bac4" fill-rule="evenodd"/>
  <path id="Path_23278" data-name="Path 23278" d="M45,69.25H42.5V45.5h-15V69.25H25V45.5A2.5,2.5,0,0,1,27.5,43h15A2.5,2.5,0,0,1,45,45.5Zm2.5,0H50v-2.5H47.5Zm0-5H50v-2.5H47.5Zm0-5H50v-2.5H47.5ZM20,69.25h2.5v-2.5H20Zm0-5h2.5v-2.5H20Zm0-5h2.5v-2.5H20Z" transform="translate(5 10.75)" fill="#48bac4" fill-rule="evenodd"/>
</svg>
