<svg xmlns="http://www.w3.org/2000/svg" width="22.065" height="18" viewBox="0 0 22.065 18">
  <g id="Icon_feather-mail" data-name="Icon feather-mail" transform="translate(-2.25 -5.25)">
    <g id="Group_10354" data-name="Group 10354">
      <path id="Path_22915" data-name="Path 22915" d="M5.153,5.25H21.411a2.907,2.907,0,0,1,2.9,2.9V20.347a2.907,2.907,0,0,1-2.9,2.9H5.153a2.907,2.907,0,0,1-2.9-2.9V8.153A2.907,2.907,0,0,1,5.153,5.25ZM21.411,21.508a1.163,1.163,0,0,0,1.161-1.161V8.153a1.163,1.163,0,0,0-1.161-1.161H5.153A1.163,1.163,0,0,0,3.992,8.153V20.347a1.163,1.163,0,0,0,1.161,1.161Z" fill="#fff"/>
      <path id="Path_22916" data-name="Path 22916" d="M13.282,17.1a.87.87,0,0,1-.5-.157L2.622,9.834a.871.871,0,1,1,1-1.427l9.662,6.763,9.662-6.763a.871.871,0,1,1,1,1.427L13.782,16.947A.87.87,0,0,1,13.282,17.1Z" transform="translate(0 -0.968)" fill="#fff"/>
    </g>
  </g>
</svg>
