<svg xmlns="http://www.w3.org/2000/svg" width="17.964" height="18" viewBox="0 0 17.964 18">
  <path id="Icon_feather-phone" data-name="Icon feather-phone" d="M17.88,20.25c-.075,0-.151,0-.225-.01l-.016,0A17.094,17.094,0,0,1,10.223,17.6a16.888,16.888,0,0,1-5.157-5.158A17.1,17.1,0,0,1,2.429,4.991V4.978A2.5,2.5,0,0,1,4.918,2.25H7.382A2.514,2.514,0,0,1,9.859,4.4V4.41a9.62,9.62,0,0,0,.524,2.1A2.509,2.509,0,0,1,9.82,9.15l-.557.557a12.189,12.189,0,0,0,3.663,3.663l.554-.554a2.5,2.5,0,0,1,2.643-.567,9.611,9.611,0,0,0,2.1.523h.008A2.5,2.5,0,0,1,20.382,15.3v2.438a2.5,2.5,0,0,1-2.5,2.509Zm-.062-1.744a.761.761,0,0,0,.823-.761V15.293q0-.011,0-.022a.761.761,0,0,0-.652-.772,11.359,11.359,0,0,1-2.477-.618.76.76,0,0,0-.8.17l-1.032,1.033a.871.871,0,0,1-1.046.141A13.929,13.929,0,0,1,7.408,10a.871.871,0,0,1,.141-1.046L8.585,7.922a.761.761,0,0,0,.168-.8,11.37,11.37,0,0,1-.619-2.48.764.764,0,0,0-.752-.651H4.918a.761.761,0,0,0-.756.824A15.35,15.35,0,0,0,6.53,11.5l0,.006a15.135,15.135,0,0,0,4.626,4.627l.007,0A15.345,15.345,0,0,0,17.817,18.505Z" transform="translate(-2.418 -2.25)" fill="#fff"/>
</svg>
